<svg width="101" height="100" viewBox="0 0 101 100" fill="none" xmlns="http://www.w3.org/2000/svg">
<path d="M38.0513 30.5551C26.6019 19.4152 34.4886 0 50.4632 0C66.4378 0 74.3245 19.4152 62.8751 30.5552L50.4632 42.6316L38.0513 30.5551Z" fill="#CBEA7B"/>
<path d="M38.1216 69.4449C26.6722 80.5848 34.5589 100 50.5335 100C66.5081 100 74.3948 80.5848 62.9454 69.4448L50.5335 57.3684L38.1216 69.4449Z" fill="#CBEA7B"/>
<path d="M31.0551 62.4472C19.9152 73.8966 0.5 66.0099 0.5 50.0353C0.5 34.0607 19.9152 26.174 31.0552 37.6235L43.1316 50.0353L31.0551 62.4472Z" fill="#CBEA7B"/>
<path d="M69.9449 62.3755C81.0848 73.8249 100.5 65.9382 100.5 49.9636C100.5 33.989 81.0848 26.1023 69.9448 37.5517L57.8684 49.9636L69.9449 62.3755Z" fill="#CBEA7B"/>
</svg>
